<svg xmlns="http://www.w3.org/2000/svg" viewBox="0 0 910.54 142.92"><defs><style>.cls-1{fill:#fff;}</style></defs><g id="Layer_2" data-name="Layer 2"><g id="Layer_1-2" data-name="Layer 1"><path class="cls-1" d="M122.28,79h-6.63a3.67,3.67,0,0,1-3.51-3.71V62.18a3.54,3.54,0,0,1,3.51-3.7h6.63V36.84a3.83,3.83,0,0,1,3.7-3.7l16-.2a3.67,3.67,0,0,1,3.51,3.71V58.48h17.15a3.58,3.58,0,0,1,3.7,3.7V75.24a3.7,3.7,0,0,1-3.7,3.71H145.48v31.18c0,5.46,2.92,6.24,6,6.24,3.31,0,7.41-1.36,9.55-2.14a3,3,0,0,1,4.29,2.14l3.9,12.28a3.53,3.53,0,0,1-2.15,4.68c-1,.59-13.64,5.07-23.19,5.07-15,0-21.64-9.36-21.64-25.15Z"/><path class="cls-1" d="M185.43,3.7A3.84,3.84,0,0,1,189.14,0h16.57a3.83,3.83,0,0,1,3.7,3.7V63a36,36,0,0,1,20.66-6.43c24.76,0,34.89,19.1,34.89,38.79v37.43a3.83,3.83,0,0,1-3.7,3.7H245.47a3.7,3.7,0,0,1-3.7-3.7V95.12c0-10.72-6.05-17.54-15.4-17.54-9,0-15,5.85-17,13.84v41.33c0,2.14-1.17,3.7-4.09,3.7H189.14a3.84,3.84,0,0,1-3.71-3.7Z"/><path class="cls-1" d="M285,17.35A13.3,13.3,0,0,1,298.29,3.9a13.45,13.45,0,1,1,0,26.9A13.3,13.3,0,0,1,285,17.35Zm1.75,44.83a3.71,3.71,0,0,1,3.71-3.7h16.17a3.71,3.71,0,0,1,3.71,3.7v70.57a3.84,3.84,0,0,1-3.71,3.7H290.5a3.84,3.84,0,0,1-3.71-3.7Z"/><path class="cls-1" d="M344.88,106.24a16.39,16.39,0,0,1,16.18,16.18,16.22,16.22,0,0,1-16.18,16,16.06,16.06,0,0,1-16-16A16.23,16.23,0,0,1,344.88,106.24Z"/><path class="cls-1" d="M415.05,56.53c12.08,0,21.44,4.87,28.85,13.84a3.71,3.71,0,0,1-1,5.46l-9,8.57c-1.76,1.56-3.51.59-4.88-.58a18.33,18.33,0,0,0-13.45-6.24c-10.52,0-19.1,9-19.1,19.88,0,11.12,8.38,19.89,18.91,19.89,8.38,0,12.08-4.1,15.59-7.41a3.66,3.66,0,0,1,4.88-.59l8.38,7.22c1.95,1.56,2.73,3.51,1.36,5.46-6.62,10.33-17,16.37-30.8,16.37-22,0-41.32-17.54-41.32-40.94C373.53,74.46,393.22,56.53,415.05,56.53Z"/><path class="cls-1" d="M496.53,56.53c22,0,40,18.71,40,40.74,0,22.42-17.94,41.13-40,41.13s-40-18.71-40-41.13C456.57,75.24,474.5,56.53,496.53,56.53Zm0,60.82c10.33,0,18.71-9,18.71-20.08,0-10.92-8.38-19.69-18.71-19.69-10.53,0-18.72,8.77-18.72,19.69C477.81,108.38,486,117.35,496.53,117.35Z"/><path class="cls-1" d="M586.58,56.53A46.73,46.73,0,0,1,603.93,60V3.7a3.83,3.83,0,0,1,3.7-3.7H624.2a3.83,3.83,0,0,1,3.7,3.7V132.75a3.83,3.83,0,0,1-3.7,3.7h-7.6c-1.76,0-3.12-1.56-3.71-3.7l-1.95-6a34.2,34.2,0,0,1-25.53,11.7c-21.25,0-37.43-18.52-37.43-40.94C548,74.66,563.38,56.53,586.58,56.53Zm1.75,60.82c10.33,0,15-8,16.38-12.67V82.07s-5.46-4.49-15.21-4.49c-10.91,0-18.91,9-18.91,19.88S578,117.35,588.33,117.35Z"/><path class="cls-1" d="M685.21,56.53c20.08,0,36.45,15.2,36.45,36.26a46.7,46.7,0,0,1-.39,5.26,3.76,3.76,0,0,1-3.7,3.31h-49.9a18.59,18.59,0,0,0,18.71,17,27.11,27.11,0,0,0,15.2-4.87c1.95-1.17,3.71-1.56,5.07,0l8,9.16a3.22,3.22,0,0,1-.2,5.07c-6.43,6-16.37,10.72-29,10.72-23.4,0-40-18.52-40-40.94C645.45,75.44,662,56.53,685.21,56.53Zm13.65,31.19a14.57,14.57,0,0,0-14.23-13.26,15.37,15.37,0,0,0-15.21,13.26Z"/><path class="cls-1" d="M78.57,140.88a10.58,10.58,0,0,0,5.3-19.74L31.73,91l52.14-30.1A10.58,10.58,0,0,0,73.29,42.61l-68,39.26a10.58,10.58,0,0,0,0,18.32l68,39.27A10.58,10.58,0,0,0,78.57,140.88Z"/><path class="cls-1" d="M829.4,141.64a10.93,10.93,0,0,1-5.48-20.39l53.85-31.09L823.92,59.07a10.93,10.93,0,1,1,10.93-18.92L905.08,80.7a10.93,10.93,0,0,1,0,18.92l-70.23,40.55A10.84,10.84,0,0,1,829.4,141.64Z"/><path class="cls-1" d="M794.19,41.46a10.91,10.91,0,0,0-14.92,4l-38.52,66.72a16.41,16.41,0,0,1,18.7,11.29l38.74-67.09A10.93,10.93,0,0,0,794.19,41.46Z"/><circle class="cls-1" cx="741.99" cy="131.85" r="11.07"/></g></g></svg>